<?xml version="1.0" standalone="no"?>
<!DOCTYPE svg PUBLIC "-//W3C//DTD SVG 20010904//EN"
 "http://www.w3.org/TR/2001/REC-SVG-20010904/DTD/svg10.dtd">
<svg version="1.0" xmlns="http://www.w3.org/2000/svg"
 width="400.000000pt" height="400.000000pt" viewBox="0 0 400.000000 400.000000"
 preserveAspectRatio="xMidYMid meet">
<metadata>
Created by potrace 1.16, written by Peter Selinger 2001-2019
</metadata>
<g transform="translate(0.000000,400.000000) scale(0.100000,-0.100000)"
fill="#01c8ff" stroke="none">
<path d="M0 2000 l0 -2000 2000 0 2000 0 0 2000 0 2000 -2000 0 -2000 0 0
-2000z m1453 373 c86 -229 101 -273 95 -279 -3 -3 -163 -2 -356 2 l-350 7 10
33 c5 18 15 46 23 61 8 15 15 32 15 37 0 5 21 67 47 138 l47 128 211 0 211 0
47 -127z m672 99 c112 -42 218 -128 273 -221 l27 -46 3 148 3 147 203 0 204 0
83 -152 84 -153 3 153 3 152 184 0 185 0 0 -495 0 -495 -218 0 -217 0 -72 143
-72 142 0 -142 -1 -143 -185 0 -185 0 0 148 0 147 -28 -48 c-39 -67 -123 -150
-190 -185 -113 -60 -132 -62 -513 -62 l-348 0 -12 35 -13 35 -132 0 -132 0
-12 -36 c-12 -34 -14 -36 -49 -30 -20 4 -46 8 -58 9 -30 3 -32 42 -3 50 17 4
20 14 20 56 0 44 -3 51 -20 51 -17 0 -20 7 -20 40 0 33 -3 40 -20 40 -18 0
-20 7 -20 60 0 41 -4 60 -12 61 -7 1 3 6 22 11 19 6 193 13 385 15 l351 5 48
-129 c73 -196 89 -237 99 -248 5 -6 6 0 3 15 -19 79 -76 346 -76 352 0 4 68 8
151 8 l151 0 29 29 c38 39 40 87 3 122 -25 23 -32 24 -202 29 l-176 5 -37 176
c-20 96 -39 188 -43 203 l-7 28 248 -4 c227 -3 253 -5 308 -26z"/>
</g>
</svg>
