<?xml version="1.0" encoding="UTF-8"?>
<svg width="512px" height="512px" viewBox="0 0 512 512" version="1.1" xmlns="http://www.w3.org/2000/svg" xmlns:xlink="http://www.w3.org/1999/xlink">
    <title>iqiyi_2022</title>
    <g id="iqiyi_2022" stroke="none" stroke-width="1" fill="none" fill-rule="evenodd">
        <rect fill="#FFFFFF" x="0" y="0" width="512" height="512"></rect>
        <g id="iQiyi_logo" transform="translate(74.000000, 228.000000)" fill="#00CC4C" fill-rule="nonzero">
            <path d="M362.58121,4.65266765 L356.627107,4.65266765 C356.531055,4.65889304 356.436658,4.62553766 356.366062,4.56042716 C356.295466,4.49531663 356.254884,4.40418145 356.253837,4.30840321 L356.253837,4.23139668 L356.253837,4.23139668 L356.253837,0.666447771 L356.253837,0.666447771 C356.255053,0.553936986 356.210988,0.445617675 356.131464,0.365631616 C356.05194,0.285645556 355.943566,0.240647011 355.830495,0.240647011 L348.37421,0.240647011 C348.13967,0.243130048 347.950855,0.433042201 347.950868,0.666447771 L347.950868,4.23139668 L347.950868,4.23139668 L347.950868,4.34011177 C347.931702,4.52563715 347.769264,4.66333382 347.58215,4.65266765 L328.204003,4.65266765 C328.107951,4.65889304 328.013554,4.62553766 327.942958,4.56042716 C327.872362,4.49531663 327.83178,4.40418145 327.830733,4.30840321 L327.830733,4.26310525 C327.828523,4.25265017 327.828523,4.24185177 327.830733,4.23139668 L327.830733,4.23139668 L327.830733,0.666447771 C327.830747,0.433042201 327.641931,0.243130048 327.407391,0.240647011 L319.964762,0.240647011 C319.728443,0.240647011 319.536868,0.431284504 319.536868,0.666447771 L319.536868,4.23139668 L319.536868,4.23139668 L319.536868,4.34011177 C319.517769,4.52380181 319.358099,4.66084321 319.172703,4.65266765 L313.255016,4.65266765 C313.157025,4.64385815 313.059754,4.67590595 312.986407,4.74116585 C312.91306,4.8064258 312.870214,4.89904616 312.86809,4.99693209 L312.86809,10.5731101 L312.86809,10.5731101 C312.870586,10.8065025 313.061432,10.9943943 313.295985,10.9943811 L319.09987,10.9943811 C319.427618,10.9943811 319.505004,11.1846325 319.51866,11.306937 L319.51866,11.4156521 L319.51866,11.4156521 L319.51866,15.732547 C319.51866,15.9677103 319.710234,16.1583478 319.946554,16.1583478 L327.398287,16.1583478 C327.632827,16.1558647 327.821642,15.9659526 327.821629,15.732547 L327.821629,11.4201819 L327.821629,11.4201819 C327.820072,11.4096691 327.820072,11.398986 327.821629,11.3884733 L327.821629,11.3250562 C327.821629,11.2027517 327.88991,10.9853215 328.244971,10.9807917 L347.513869,10.9807917 C347.837066,10.9807917 347.919003,11.1710431 347.93266,11.2933476 L347.93266,11.4020627 L347.93266,11.4020627 L347.93266,15.7189576 C347.932646,15.9523632 348.121462,16.1422753 348.356002,16.1447584 L355.807735,16.1447584 C356.044054,16.1447584 356.235629,15.9541209 356.235629,15.7189576 L356.235629,11.4201819 L356.235629,11.4201819 L356.235629,11.3250562 C356.235629,11.2027517 356.299358,10.9853215 356.658971,10.9807917 L362.576658,10.9807917 C362.810463,10.9807917 363,10.7921823 363,10.5595207 L363,5.07393861 C363,4.84303465 362.813236,4.65515048 362.58121,4.65266765 Z M201.811321,7.36601504 C201.816629,7.54150688 201.895329,7.70682344 202.02843,7.82207216 C202.161531,7.93732089 202.336944,7.99203362 202.512339,7.97300762 C206.672928,7.97300762 228.691275,7.63780276 233.352591,7.63780276 C236.944171,7.63780276 243.57198,7.29806811 247.108936,6.70013513 C247.322883,6.66389677 247.655184,6.4419368 247.564143,5.87118259 C247.473101,5.30042838 246.785739,1.49087052 246.653729,1.08318894 C246.618213,0.914675313 246.514898,0.767986272 246.367834,0.677270194 C246.220771,0.586554113 246.042791,0.559725766 245.875326,0.603030636 C241.268608,1.23104663 236.622995,1.53378952 231.973315,1.5089897 C231.973315,1.5089897 203.249774,1.84419455 202.512339,1.84419455 C202.325273,1.82722438 202.139879,1.89093002 202.003195,2.01914855 C201.86651,2.14736708 201.791671,2.32777636 201.797032,2.51460426 L201.811321,7.36601504 Z M217.206411,21.4717196 C217.323997,21.4728036 217.435986,21.5219196 217.516067,21.607607 C217.596148,21.6932943 217.637263,21.8080003 217.629753,21.9247772 C217.570576,22.5453592 217.515951,22.9847493 217.438566,23.5781525 L217.438566,23.5781525 C217.435293,23.6033097 217.427393,23.7231059 217.588784,23.7231059 L217.588784,23.7231059 L247.113488,23.7231059 C247.226973,23.7231059 247.335809,23.7679669 247.416055,23.8478201 C247.496301,23.9276732 247.541382,24.0359773 247.541382,24.1489067 L247.541382,24.1489067 L247.541382,29.3355223 C247.541382,29.5646913 247.357387,29.7518649 247.127144,29.7567933 L247.127144,29.7567933 L216.34607,29.7567933 C216.21406,29.7567933 216.168539,29.9153361 216.168539,29.9153361 L216.168539,29.9153361 L216.010071,30.4883552 C215.847903,31.0613743 215.67464,31.6343935 215.490281,32.2074126 L215.490281,32.2074126 C215.483042,32.2320119 215.453486,32.3614256 215.649604,32.3614256 L215.649604,32.3614256 L242.006069,32.3614256 C245.233485,32.3614256 245.224381,35.4416864 245.065058,36.3114071 C244.608859,38.5320768 243.738004,40.6478557 242.497693,42.5489353 C241.487134,44.1570126 239.511537,46.2361887 237.69071,47.8306766 C240.258076,48.5780928 242.884618,48.9676552 247.017895,49.1171385 C247.143859,49.0964613 247.272114,49.1374786 247.362388,49.2273104 C247.452661,49.3171425 247.49388,49.4447704 247.473101,49.570118 L247.473101,49.570118 L247.473101,55.5539776 C247.473101,55.8620037 247.263706,55.9707188 247.017895,55.9707188 C240.70176,55.9522341 234.434951,54.863091 228.486432,52.7500343 C222.081674,54.8699785 214.73919,56.0613147 208.753223,55.9843082 C208.552932,55.9797784 208.147798,55.9390102 208.147798,55.4860307 L208.147798,55.4860307 L208.147798,49.5972968 C208.147009,49.468006 208.201779,49.3445415 208.298311,49.2580006 C208.394843,49.1714602 208.523937,49.1300928 208.653077,49.1443173 C212.350694,49.1639426 216.037189,48.7396059 219.632662,47.8805044 C217.15934,46.0318124 215.039393,43.7565395 213.37357,41.1628179 L213.37357,41.1628179 C213.336426,41.1021711 212.746858,40.1164352 213.696767,40.1164352 L213.696767,40.1164352 L221.535426,40.1164352 C221.756836,40.0913597 221.978153,40.164219 222.140851,40.3157462 C223.857462,42.5069519 226.087861,44.2458345 228.63665,45.3800573 L228.63665,45.3800573 L228.868805,45.2622827 L229.182898,45.0810909 C233.061259,42.9339679 234.78194,40.4018123 235.519374,38.5627154 C235.59676,38.372464 235.979133,37.7201735 235.187074,37.7201735 L235.187074,37.7201735 L213.733184,37.7201735 C213.428195,37.7201735 213.359914,37.9104249 213.359914,37.9104249 L213.359914,37.9104249 L213.117293,38.4611352 C210.507135,44.3248538 207.187517,49.8504929 203.231566,54.9152765 C203.074192,55.1067876 202.796352,55.1479657 202.589725,55.0104022 C202.464356,54.9368859 201.060715,53.9835837 199.651821,53.0223249 L199.370349,52.8302253 C198.013211,51.9037281 196.730469,51.024108 196.672038,50.9788844 C196.672038,50.9788844 196.335185,50.788633 196.617413,50.3356534 C201.765801,43.5681392 205.557672,36.6919099 207.542373,29.8700382 C207.569685,29.7658529 207.437676,29.7658529 207.437676,29.7658529 L207.437676,29.7658529 L199.885797,29.7658529 C199.651992,29.7658529 199.462455,29.5772434 199.462455,29.3445819 L199.462455,29.3445819 L199.462455,24.1670259 C199.461239,24.0545151 199.505304,23.9461958 199.584828,23.8662097 C199.664352,23.7862236 199.772726,23.7412186 199.885797,23.7412251 L199.885797,23.7412251 L208.730462,23.7412251 C208.782742,23.7467995 208.830451,23.7111924 208.839712,23.6596888 L208.839712,23.6596888 L208.839712,23.6823378 L208.873196,23.4070107 C208.936977,22.8743702 208.982127,22.4372912 209.017243,21.8704196 C209.022758,21.7823398 209.05623,21.6982761 209.112836,21.6303405 C209.19258,21.5286731 209.315545,21.4700056 209.445137,21.4717196 L209.445137,21.4717196 L217.206411,21.4717196 Z M241.946893,9.80304492 C242.063002,9.79205895 242.178075,9.83256275 242.261419,9.91375385 C242.344765,9.9949449 242.387906,10.1085667 242.379339,10.2243159 L242.379339,10.2243159 L242.379339,13.2955171 L242.379952,13.3285286 C242.383995,13.3611226 242.398158,13.3919608 242.420886,13.4165165 C242.451191,13.4492574 242.49393,13.4678132 242.538661,13.4676493 L242.538661,13.4676493 L246.8085,13.4676493 C249.348553,13.4676493 249.908457,15.2297397 249.953978,17.5308757 L249.953978,17.5308757 L249.953978,21.7662344 C249.942546,21.9990247 249.755466,22.1851893 249.521531,22.1965649 L249.521531,22.1965649 L242.02883,22.1965649 C241.573623,22.1965649 241.573623,21.7435854 241.573623,21.7435854 L241.573623,21.7435854 L241.573623,19.9090183 C241.573623,19.5647538 241.491686,19.3518535 241.036479,19.3518535 L241.036479,19.3518535 L207.02799,19.3518535 C206.919858,19.3456539 206.813892,19.3837959 206.734768,19.4573982 C206.655643,19.5310005 206.610265,19.6336396 206.609199,19.7414159 L206.609199,19.7414159 L206.609338,21.4676076 C206.606059,21.5657909 206.561175,21.8930686 206.108472,21.8930686 L206.108472,21.8930686 L198.74778,21.8930686 C198.613737,21.90813 198.479884,21.8632549 198.382326,21.7705477 C198.284768,21.6778404 198.233555,21.5468505 198.242501,21.4129103 L198.242206,14.0528185 C198.250182,13.8971281 198.318212,13.749433 198.433614,13.6414864 C198.565502,13.5181189 198.745637,13.4594113 198.925311,13.4812387 L198.925311,13.4812387 L205.239027,13.4812387 C205.284114,13.481308 205.327237,13.4628892 205.358246,13.4303186 C205.389254,13.397748 205.405407,13.3539032 205.402902,13.3091065 L205.402902,13.3091065 L205.402902,10.265084 C205.402902,10.0149104 205.606705,9.81210452 205.858108,9.81210452 L205.858108,9.81210452 L212.840979,9.81210452 C212.960751,9.79369058 213.082402,9.83086321 213.171148,9.91299334 C213.259894,9.99512347 213.305964,10.1131687 213.296185,10.2333755 L213.296185,10.2333755 L213.296185,13.3045767 L213.296798,13.3375882 C213.300841,13.3701822 213.315004,13.4010204 213.337732,13.4255761 C213.368037,13.458317 213.410777,13.4768728 213.455508,13.4767089 L213.455508,13.4767089 L219.732807,13.4767089 C219.777894,13.4767782 219.821017,13.4583595 219.852026,13.4257888 C219.883034,13.3932182 219.899187,13.3493734 219.896682,13.3045767 L219.896682,13.3045767 L219.896682,10.2605543 C219.896682,10.0103806 220.100485,9.80757472 220.351889,9.80757472 L220.351889,9.80757472 L227.635195,9.80757472 C227.753914,9.79427198 227.872554,9.83320018 227.960039,9.91416234 C228.047523,9.99512455 228.095135,10.110054 228.090402,10.2288457 L228.090402,10.2288457 L228.090402,13.3000469 C228.086568,13.3443955 228.101644,13.3883054 228.131949,13.4210463 C228.162253,13.4537872 228.204993,13.472343 228.249724,13.4721791 L228.249724,13.4721791 L234.322181,13.4721791 C234.367267,13.4722484 234.410391,13.4538297 234.441399,13.421259 C234.472407,13.3886884 234.48856,13.3448436 234.486055,13.3000469 L234.486055,13.3000469 L234.486055,10.2560245 C234.486055,10.0058508 234.689858,9.80304492 234.941262,9.80304492 L234.941262,9.80304492 L241.946893,9.80304492 Z M258.28426,10.4417461 L273.538235,10.4417461 C273.601964,10.4417461 273.72487,10.4417461 273.63838,10.5685803 C270.17881,14.1063505 264.534247,15.4290507 259.772785,16.153818 C259.290266,16.2308245 258.98983,16.307831 258.98983,16.9193534 L258.98983,21.7662344 C258.98983,22.3641673 259.445037,22.2735714 259.677192,22.2463927 C265.248922,21.6167511 271.630919,19.8138926 275.349957,17.2953264 C277.917323,15.555885 279.902024,14.006695 281.499799,11.859572 C285.924408,18.0744512 292.952799,21.2588973 303.868655,22.2418629 C304.07805,22.2418629 304.501392,22.1829755 304.501392,21.7888833 L304.501392,16.7608105 C304.501392,16.1945861 304.182747,16.2036457 303.936936,16.1809967 C298.019249,15.5422956 292.151635,13.6216624 289.142719,10.5685803 C289.05623,10.4553355 289.179136,10.4372163 289.238313,10.4372163 L304.533256,10.4372163 C304.533256,10.4372163 304.952047,10.4372163 304.952047,10.0431241 L304.952047,4.44882686 C304.952047,4.0275559 304.451319,4.05020487 304.451319,4.05020487 L286.197532,4.05020487 C285.947168,4.05020487 285.897096,3.87354285 285.892544,3.78294695 L285.892544,3.71952981 L285.892544,3.71952981 L285.892544,0.381070666 C285.900111,0.283533125 285.8667,0.187239132 285.800271,0.115124988 C285.733841,0.0430108436 285.640339,0.00153183383 285.542035,0.000169861232 L277.289138,0.000169861232 C277.173173,-0.0032845126 277.061861,0.0460994268 276.987232,0.134508675 C276.912603,0.222917923 276.882935,0.340547403 276.906764,0.453547391 L276.906764,3.71952981 L276.906764,3.71952981 L276.906764,3.78747674 C276.906764,3.87807265 276.847587,4.0230261 276.606328,4.04567508 L258.234187,4.04567508 C258.136196,4.03686559 258.038925,4.06891336 257.965578,4.13417329 C257.892231,4.19943323 257.849385,4.2920536 257.847063,4.38993952 L257.847063,10.0612433 C257.847063,10.0612433 257.829053,10.4417461 258.28426,10.4417461 Z M306.80929,23.2520072 C307.043095,23.2520072 307.232632,23.4406167 307.232632,23.6732782 L307.232632,23.6732782 L307.232632,29.2086881 C307.232632,29.3204161 307.18803,29.427568 307.108638,29.5065716 C307.029246,29.5855752 306.921567,29.629959 306.80929,29.629959 L306.80929,29.629959 L304.07805,29.629959 C303.954602,29.6203055 303.833096,29.6649203 303.745536,29.7520517 C303.657976,29.8391831 303.613142,29.9600949 303.622843,30.0829386 C303.63242,31.5204132 303.644796,33.5048234 303.653493,35.5451901 L303.655363,35.9993265 L303.655363,35.9993265 L303.657906,36.6813659 C303.661067,37.5899232 303.663265,38.4915737 303.663931,39.3432137 L303.663925,40.3785984 C303.662269,42.2510544 303.650983,43.753449 303.622843,44.3382044 C303.367927,50.1544616 302.257223,53.2347224 297.149804,55.8302951 C296.339537,56.2696853 295.970819,55.7170503 295.970819,55.7170503 C295.970819,55.7170503 295.160889,54.6570496 294.28788,53.5111953 L294.100114,53.2646961 C293.190541,52.0703635 292.270529,50.8585762 292.169843,50.7116264 C291.965001,50.4126599 292.20626,50.1272828 292.488488,49.9868592 C295.146895,48.6868079 295.483748,47.3142799 295.483748,43.3914772 L295.483748,30.1055875 C295.494063,29.9881361 295.453902,29.8718326 295.373216,29.7854983 C295.292531,29.6991641 295.178872,29.6508788 295.060406,29.652608 L295.060406,29.652608 L256.008226,29.652608 C255.773673,29.6526212 255.582828,29.4647294 255.580332,29.231337 L255.580332,29.231337 L255.580332,23.6732782 C255.582828,23.4398858 255.773673,23.2520072 256.008226,23.2520072 L256.008226,23.2520072 L306.80929,23.2520072 Z M286.006345,32.8234647 C288.513289,32.8234647 290.548384,34.8404829 290.558412,37.3351409 L290.558412,37.3351409 L290.558412,48.4557884 C290.558412,50.957525 288.520382,52.9855837 286.006345,52.9855837 L286.006345,52.9855837 L263.605626,52.9855837 C261.091589,52.9855837 259.053559,50.957525 259.053559,48.4557884 L259.053559,48.4557884 L259.053559,37.35326 C259.053559,34.8515232 261.091589,32.8234647 263.605626,32.8234647 L263.605626,32.8234647 L286.006345,32.8234647 Z M282.127985,38.2728085 L267.488538,38.2728085 C267.108175,38.2728085 266.799126,38.5783138 266.796624,38.9568076 L266.796624,38.9568076 L266.796624,46.8069429 L266.800016,46.8748377 C266.815772,47.0320823 266.885899,47.1798569 266.999554,47.2922117 C267.129446,47.4206178 267.305451,47.4921487 267.488538,47.4909716 L267.488538,47.4909716 L282.132537,47.4909716 C282.512156,47.4909716 282.819899,47.1847051 282.819899,46.8069429 L282.819899,46.8069429 L282.819899,39.1651782 L282.815347,38.9568076 L282.811802,38.8911188 C282.776579,38.5452613 282.484301,38.2751336 282.127985,38.2728085 L282.127985,38.2728085 Z M360.259656,49.1805556 L326.146469,49.1805556 C325.608625,49.1877222 325.14625,48.8026901 325.058525,48.2745966 C324.987635,47.828395 325.211234,47.387033 325.613877,47.1783861 L352.47107,33.7973707 L356.313014,31.8540885 C357.04906,31.464419 357.731446,30.9817779 358.343236,30.4181434 C358.954571,29.8370227 359.436821,29.1349321 359.758929,28.3570865 C360.064288,27.5602359 360.218629,26.7139794 360.214135,25.8611693 C360.238685,22.4854224 357.563567,19.7010227 354.173543,19.5738134 L316.36863,19.5738134 C316.134824,19.5738134 315.945287,19.7624229 315.945287,19.9950844 L315.945287,19.9950844 L315.945287,25.8838183 C315.945274,26.1147223 316.132052,26.3026064 316.364078,26.3050893 L349.507675,26.3050893 C349.829228,26.3022155 350.09606,26.55177 350.113099,26.8713137 C350.108533,27.085813 349.98621,27.2805725 349.794455,27.3786508 L349.544091,27.5145446 L349.544091,27.5145446 L349.412081,27.5870213 L348.861281,27.8769282 C344.709796,30.0829386 320.852415,41.647506 318.608246,43.219345 C318.348779,43.3778878 318.102967,43.5454902 317.86626,43.7130927 C317.387692,44.034803 316.951807,44.4152879 316.568921,44.8455415 L316.568921,44.8455415 C316.491535,44.9316076 316.418702,45.0176737 316.350421,45.1082696 L316.327661,45.1354484 C316.257863,45.2200046 316.194134,45.3060708 316.136474,45.3936467 L316.109162,45.4298851 C316.045433,45.5159512 315.990808,45.6020173 315.931631,45.6926132 L315.931631,45.7288516 C315.872454,45.8239773 315.813277,45.919103 315.758653,46.0187585 L315.758653,46.0187585 C315.640611,46.2318197 315.534241,46.4510799 315.440008,46.6755788 L315.440008,46.6755788 C315.399039,46.7752343 315.358071,46.8839494 315.317102,46.9881347 L315.28979,47.0742008 C315.257925,47.1557371 315.235165,47.2372734 315.207853,47.3233395 L315.175988,47.4365844 C315.175988,47.5135909 315.13502,47.5860677 315.116811,47.6630742 C315.098603,47.7400807 315.116811,47.7491403 315.084947,47.7944382 C315.053082,47.8397362 315.053082,47.9393917 315.039426,48.0118684 C315.02577,48.0843451 315.039426,48.1069941 315.039426,48.1522921 C315.039426,48.19759 315.016666,48.3017753 315.007562,48.374252 C314.998458,48.4467288 315.007562,48.464848 315.007562,48.5101459 C315.007562,48.5554439 315.007562,48.6732185 314.984801,48.7547549 C314.987061,48.7954922 314.987061,48.836322 314.984801,48.8770593 C314.984801,48.994834 314.984801,49.1126087 314.984801,49.2349132 L314.984801,49.2349132 C314.984801,49.348158 314.984801,49.4614029 314.984801,49.5746478 C314.984801,49.6063564 314.984801,49.6380649 314.984801,49.6697735 C314.984801,49.7014821 314.984801,49.8328461 314.984801,49.9098527 C314.984801,49.9868592 314.984801,49.991389 314.984801,50.0321571 C314.984801,50.0729253 314.984801,50.1725808 315.012114,50.2405277 C315.039426,50.3084746 315.012114,50.3311236 315.034874,50.3764216 C315.057634,50.4217195 315.034874,50.5032558 315.066739,50.566673 C315.098603,50.6300901 315.089499,50.6572689 315.098603,50.7025668 L315.139572,50.8837587 L315.18054,51.0241823 C315.18054,51.0830696 315.212405,51.141957 315.230613,51.1963145 C315.243045,51.2439589 315.258244,51.2908455 315.276134,51.3367382 L315.330758,51.5043406 L315.385383,51.6447643 C315.385383,51.6991218 315.426352,51.7534794 315.449112,51.8078369 L315.508289,51.9437308 C315.508289,51.9935585 315.55381,52.0479161 315.581122,52.0977438 C315.608434,52.1475715 315.622091,52.1883397 315.644851,52.2336377 C315.667611,52.2789356 315.699476,52.3332932 315.722236,52.3831209 C315.744996,52.4329487 315.772309,52.4737168 315.799621,52.514485 L315.881558,52.6594384 L315.963496,52.7908025 L316.049985,52.9312261 L316.136474,53.0535306 L316.232068,53.1894245 L316.327661,53.3117289 L316.427806,53.443093 L316.527952,53.5608677 L316.632649,53.6831722 L316.737347,53.796417 L316.851149,53.9141917 L316.960398,54.0229068 L317.078752,54.1361517 L317.192554,54.240337 L317.315459,54.3445223 L317.433813,54.4441778 L317.561271,54.5438333 L317.688729,54.638959 L317.820739,54.7295549 L317.948197,54.8201508 L318.084759,54.9062169 L318.221321,54.992283 L318.357883,55.0692895 L318.498997,55.146296 L318.640111,55.2187728 L318.785777,55.2912495 L318.931443,55.3591964 L319.081661,55.4226136 L319.227327,55.4815009 L319.382098,55.5403882 L319.532316,55.590216 L319.691638,55.6400437 L319.846409,55.6853417 L320.005731,55.7306396 L320.165053,55.766878 L320.324376,55.8031164 L320.48825,55.8302951 C320.542875,55.8302951 320.597499,55.8302951 320.652124,55.8574739 L320.815999,55.8574739 L320.984425,55.8574739 L321.316726,55.8574739 L321.316726,55.8574739 L321.667235,55.8574739 L360.309729,55.8574739 C360.544282,55.8574739 360.735127,55.6695952 360.737652,55.4362029 L360.737652,49.6018266 C360.738647,49.48001 360.686628,49.3637161 360.594986,49.2829444 C360.503344,49.2021727 360.381052,49.1648327 360.259656,49.1805556 Z M89.8168263,55.4905605 C89.8339057,55.7529385 90.0580909,55.9539191 90.3221057,55.9442974 L102.385082,55.9442974 C102.649957,55.9540193 102.875487,55.7536388 102.894914,55.4905605 L102.894914,1.70830069 C102.875487,1.4452223 102.649957,1.24484194 102.385082,1.25456368 L90.3221057,1.25456368 C90.0580909,1.24494218 89.8339057,1.44592257 89.8168263,1.70830069 L89.8168263,55.4905605 Z M1.11980839,55.4905605 C1.13923503,55.7536388 1.36476445,55.9540193 1.62963985,55.94354 L13.6926164,55.94354 C13.9566312,55.9539191 14.1808162,55.7529385 14.1978958,55.4905605 L14.1978958,21.6303405 C14.1808162,21.3679624 13.9566312,21.166982 13.6926164,21.177361 L1.62963985,21.177361 C1.36389091,21.1644421 1.13689765,21.3661231 1.11980839,21.6303405 L1.11980839,55.4905605 Z M81.8552618,46.7118172 L75.8875025,41.9464725 C75.7676867,41.8498749 75.6842568,41.7157632 75.650795,41.5659697 C75.613769,41.4123869 75.6365375,41.2505499 75.714524,41.1129902 C82.4113204,28.5700803 78.598529,13.02403 66.8480364,4.96130036 C55.0975442,-3.10142929 39.1401556,-1.12090611 29.7397962,9.56692423 C20.3394367,20.2547545 20.4807391,36.2564852 30.0683888,46.7782797 C39.6560386,57.3000742 55.6459385,59.0012425 67.2522321,50.7342754 C67.4892737,50.5560968 67.8163543,50.5560968 68.0533959,50.7342754 L74.4536015,55.8484143 C74.5607713,55.9320375 74.697107,55.9695175 74.8322169,55.9524986 C74.9673264,55.9354797 75.0899777,55.865377 75.172828,55.7578184 L81.937199,47.4275248 C82.1117435,47.2069637 82.0751881,46.8876584 81.8552618,46.7118172 Z M53.7917712,44.1660722 C45.0654595,45.7515006 36.63048,39.8038793 35.0190485,30.9300103 C33.4076169,22.0561413 39.2069497,13.562775 47.9469176,11.9909361 C56.6868855,10.4190971 65.0945526,16.353129 66.7196403,25.226998 C68.3447281,34.100867 62.5317391,42.5806438 53.7917712,44.1660722 Z M180.311911,1.24099016 L168.248934,1.24099016 C167.984919,1.2313528 167.760734,1.43233318 167.743655,1.69471131 L167.743655,55.4905605 C167.760734,55.7529385 167.984919,55.9539191 168.248934,55.9442817 L180.311911,55.9442817 C180.575925,55.9539191 180.800111,55.7529385 180.81719,55.4905605 L180.81719,1.70830069 C180.81245,1.57972254 180.75653,1.45829592 180.661751,1.37077852 C180.566972,1.28326112 180.441114,1.2368354 180.311911,1.24099016 Z M7.66112811,0.168170286 C3.43000389,0.168170286 0,3.58139265 0,7.7918158 C0,12.0022389 3.43000389,15.4154613 7.66112811,15.4154613 C11.8922523,15.4154613 15.3222562,12.0022389 15.3222562,7.7918158 C15.3222562,5.76989931 14.515104,3.83079523 13.0783637,2.40108436 C11.6416235,0.971373488 9.6929856,0.168170286 7.66112811,0.168170286 Z M161.357105,1.2409781 L148.497517,1.2409781 C148.282679,1.23987059 148.082462,1.34979428 147.969477,1.53163868 L136.024855,22.6495444 C136.024855,22.6495444 135.938365,22.8080873 135.820012,22.8080873 L135.820012,22.8080873 C135.701658,22.8080873 135.615169,22.6495444 135.615169,22.6495444 L123.670546,1.53163868 C123.557561,1.34979428 123.357344,1.23987059 123.142506,1.2409781 L110.28747,1.2409781 C110.078591,1.24247277 109.887493,1.35885572 109.791789,1.5436135 C109.696085,1.72837127 109.711689,1.95078009 109.832263,2.12051207 L128.950943,34.1144564 C129.133489,34.4233424 129.229383,34.77532 129.228619,35.1336603 L129.228619,55.3999646 C129.231119,55.7059079 129.481066,55.9525996 129.788523,55.9525996 L141.878812,55.9525996 C142.18627,55.9525996 142.436217,55.7059079 142.438716,55.3999646 L142.438716,35.1336603 C142.437952,34.77532 142.533846,34.4233424 142.716392,34.1144564 L161.835072,2.12051207 C161.95824,1.94744497 161.971995,1.71980415 161.870555,1.53329755 C161.769114,1.34679094 161.570069,1.23376194 161.357105,1.2409781 L161.357105,1.2409781 Z" id="Shape"></path>
        </g>
    </g>
</svg>